<?xml version="1.0" encoding="UTF-8"?>
<svg xmlns="http://www.w3.org/2000/svg" width="73" height="58" viewBox="0 0 73 58" fill="none">
  <g id="Group">
    <path id="Vector" d="M51.6731 26.3214C60.8195 14.3854 53.9749 5.52872 48.6243 1.93115C44.6152 8.79092 38.3804 11.0775 31.0481 11.0775C23.7157 11.0775 16.8103 8.02872 10.5145 8.02872C3.18219 8.02872 1.36816 14.5226 1.36816 17.1751C1.36816 21.8397 2.70963 24.6141 5.94134 26.3214" stroke="#A8BFEF" stroke-width="2" stroke-linejoin="round"></path>
    <path id="Vector_2" d="M5.92676 44.6142V26.3215H51.6586V44.6142" stroke="white" stroke-width="2" stroke-linejoin="round"></path>
    <path id="Vector_3" d="M72.9995 36.9922H66.902C65.0422 36.9922 56.5666 44.6142 54.7068 44.6142H2.87744V50.7117C2.87744 55.0562 4.53903 56.8093 8.97501 56.8093H54.7068C56.5666 56.8093 65.0422 49.1873 66.902 49.1873H72.9995" stroke="white" stroke-width="2" stroke-linejoin="round"></path>
    <path id="Vector_4" d="M13.5488 26.3215V40.0411" stroke="white" stroke-width="2" stroke-linejoin="round"></path>
    <path id="Vector_5" d="M21.1704 26.3215V40.0411" stroke="white" stroke-width="2" stroke-linejoin="round"></path>
    <path id="Vector_6" d="M28.792 26.3215V40.0411" stroke="white" stroke-width="2" stroke-linejoin="round"></path>
    <path id="Vector_7" d="M36.4141 26.3215V40.0411" stroke="white" stroke-width="2" stroke-linejoin="round"></path>
    <path id="Vector_8" d="M44.0366 26.3215V40.0411" stroke="white" stroke-width="2" stroke-linejoin="round"></path>
  </g>
</svg>
