<?xml version="1.0" encoding="UTF-8"?>
<svg xmlns="http://www.w3.org/2000/svg" width="42" height="57" viewBox="0 0 42 57" fill="none">
  <g id="Group">
    <path id="Vector" d="M39.9958 49.6571L28.0878 37.3317V21.3725L29.3154 20.1448V16.4619H20.722V20.1448L21.9496 21.3725V37.3317L10.0416 49.6571C7.97916 52.0388 9.6733 55.7462 12.8283 55.7462H37.2091C40.3641 55.7462 42.0583 52.0388 39.9958 49.6571Z" stroke="#333333" stroke-width="2" stroke-miterlimit="10" stroke-linecap="round"></path>
    <path id="Vector_2" d="M28.088 21.3723H25.6328" stroke="#333333" stroke-width="2" stroke-miterlimit="10" stroke-linecap="round"></path>
    <path id="Vector_3" d="M15.7994 18.7574C13.6879 18.205 12.1288 16.2899 12.1288 14.0065C12.1288 11.2934 14.3262 9.09595 17.0393 9.09595C19.3227 9.09595 21.2501 10.655 21.7903 12.7666" stroke="#A8BFEF" stroke-width="2" stroke-miterlimit="10" stroke-linecap="round"></path>
    <path id="Vector_4" d="M33.0108 19.0767C35.1224 19.6291 36.6815 21.5442 36.6815 23.8276C36.6815 26.5407 34.484 28.7381 31.7709 28.7381" stroke="#A8BFEF" stroke-width="2" stroke-miterlimit="10" stroke-linecap="round"></path>
    <path id="Vector_5" d="M10.2873 31.1935C12.6603 31.1935 14.584 29.2698 14.584 26.8968C14.584 24.5238 12.6603 22.6001 10.2873 22.6001C7.91431 22.6001 5.9906 24.5238 5.9906 26.8968C5.9906 29.2698 7.91431 31.1935 10.2873 31.1935Z" stroke="#A8BFEF" stroke-width="2" stroke-miterlimit="10" stroke-linecap="round"></path>
    <path id="Vector_6" d="M4.76298 9.09603C6.79699 9.09603 8.44588 7.44714 8.44588 5.41313C8.44588 3.37912 6.79699 1.73022 4.76298 1.73022C2.72897 1.73022 1.08008 3.37912 1.08008 5.41313C1.08008 7.44714 2.72897 9.09603 4.76298 9.09603Z" stroke="#A8BFEF" stroke-width="2" stroke-miterlimit="10" stroke-linecap="round"></path>
    <path id="Vector_7" d="M31.7709 9.09603C33.8049 9.09603 35.4538 7.44714 35.4538 5.41313C35.4538 3.37912 33.8049 1.73022 31.7709 1.73022C29.7369 1.73022 28.088 3.37912 28.088 5.41313C28.088 7.44714 29.7369 9.09603 31.7709 9.09603Z" stroke="#A8BFEF" stroke-width="2" stroke-miterlimit="10" stroke-linecap="round"></path>
    <path id="Vector_8" d="M14.584 2.95776H17.0393" stroke="#A8BFEF" stroke-width="2" stroke-miterlimit="10"></path>
    <path id="Vector_9" d="M5.9906 17.6895H8.44587" stroke="#A8BFEF" stroke-width="2" stroke-miterlimit="10"></path>
    <path id="Vector_10" d="M23.1775 45.925H36.6815" stroke="#333333" stroke-width="2" stroke-miterlimit="10"></path>
    <path id="Vector_11" d="M19.4946 45.925H13.3564" stroke="#333333" stroke-width="2" stroke-miterlimit="10"></path>
  </g>
</svg>
