<?xml version="1.0" encoding="UTF-8"?>
<svg xmlns="http://www.w3.org/2000/svg" width="69" height="69" viewBox="0 0 69 69" fill="none">
  <g id="Group">
    <path id="Vector" d="M39.1083 37.8282L31.5864 30.3063C30.3014 29.0213 29.4929 26.7258 30.7201 25.3687L49.5177 4.27552L51.6977 2.09546L67.3335 17.7312L65.1535 19.9113L44.0603 38.7089C42.6887 39.9361 40.3932 39.1276 39.1227 37.8426L39.1083 37.8282Z" stroke="#333333" stroke-width="2" stroke-miterlimit="10"></path>
    <path id="Vector_2" d="M30.9509 32.674L28.1789 35.4315C27.1539 36.4566 27.6158 38.5789 29.204 40.167C30.7921 41.7551 32.9288 42.2316 33.9539 41.2065L36.7259 38.4489" stroke="#333333" stroke-width="2" stroke-miterlimit="10"></path>
    <path id="Vector_3" d="M48.2759 5.48828L63.9117 21.1241" stroke="#333333" stroke-width="2" stroke-miterlimit="10"></path>
    <path id="Vector_4" d="M25.349 55.774C21.7252 50.8508 24.9737 47.0827 27.5724 45.3213C29.5359 48.6563 31.8315 49.7825 35.3975 49.7825C38.9636 49.7825 39.4544 48.2954 42.5152 48.2954C45.1572 48.2954 46.2256 50.7209 46.2256 52.0058C46.2256 52.7421 46.2401 54.2003 45.3738 55.7596H25.3346L25.349 55.774Z" stroke="#A8BFEF" stroke-width="2" stroke-linejoin="round"></path>
    <path id="Vector_5" d="M46.832 67.3239H22.2883L16.5134 64.4364H0.632141" stroke="#333333" stroke-width="2" stroke-linejoin="round"></path>
    <path id="Vector_6" d="M39.6133 58.6615V67.324" stroke="#333333" stroke-width="2" stroke-linejoin="round"></path>
    <path id="Vector_7" d="M35.282 58.6615V67.324" stroke="#333333" stroke-width="2" stroke-linejoin="round"></path>
    <path id="Vector_8" d="M30.9507 58.6615V67.324" stroke="#333333" stroke-width="2" stroke-linejoin="round"></path>
    <path id="Vector_9" d="M26.6195 58.6615V67.324" stroke="#333333" stroke-width="2" stroke-linejoin="round"></path>
    <path id="Vector_10" d="M43.9446 58.6615V67.324" stroke="#333333" stroke-width="2" stroke-linejoin="round"></path>
  </g>
</svg>
