<?xml version="1.0" encoding="UTF-8"?>
<svg xmlns="http://www.w3.org/2000/svg" width="62" height="54" viewBox="0 0 62 54" fill="none">
  <g id="Group 8">
    <g id="Group">
      <path id="Vector" d="M39.561 5.00817C37.2582 2.91036 34.2762 1.66663 30.8841 1.66663C27.6794 1.66663 25.0205 1.80596 22.7563 2.82774C20.4921 1.80596 17.8332 1.66663 14.6285 1.66663C2.41355 1.66663 -4.48348 17.7945 6.50068 31.8557C7.2438 45.5452 10.9826 49.644 12.0276 51.2579C13.1422 52.9996 16.9507 52.9764 16.9507 49.6788C16.9507 39.2171 18.5531 34.0966 22.7563 34.0966C26.9596 34.0966 28.5619 39.2171 28.5619 49.6788C28.5619 52.9648 32.3703 52.988 33.485 51.2579C34.2074 50.1343 36.2168 47.8344 37.6343 42" stroke="#333333" stroke-width="2" stroke-linejoin="round"></path>
      <path id="Vector_2" d="M22.7562 2.81616C25.392 3.93083 25.7287 5.35901 28.5618 6.29951" stroke="#333333" stroke-width="2" stroke-linejoin="round"></path>
      <path id="Vector_3" d="M5.33936 15.5884C5.33936 9.81761 10.0187 5.13831 15.7894 5.13831" stroke="#333333" stroke-width="2" stroke-linejoin="round"></path>
    </g>
    <g id="Group_2">
      <path id="Vector_4" d="M44.3583 36.8763C51.272 36.8763 56.8767 31.2716 56.8767 24.3579C56.8767 17.4442 51.272 11.8395 44.3583 11.8395C37.4445 11.8395 31.8398 17.4442 31.8398 24.3579C31.8398 31.2716 37.4445 36.8763 44.3583 36.8763Z" stroke="#333333" stroke-width="2" stroke-miterlimit="10"></path>
      <path id="Vector_5" d="M40.1851 24.3578C41.9136 24.3578 43.3148 22.9567 43.3148 21.2282C43.3148 19.4998 41.9136 18.0986 40.1851 18.0986C38.4567 18.0986 37.0555 19.4998 37.0555 21.2282C37.0555 22.9567 38.4567 24.3578 40.1851 24.3578Z" stroke="#A8BFEF" stroke-width="2" stroke-linecap="round" stroke-linejoin="round"></path>
      <path id="Vector_6" d="M48.0087 30.6171C50.0253 30.6171 51.66 28.9824 51.66 26.9659C51.66 24.9494 50.0253 23.3147 48.0087 23.3147C45.9922 23.3147 44.3575 24.9494 44.3575 26.9659C44.3575 28.9824 45.9922 30.6171 48.0087 30.6171Z" stroke="#A8BFEF" stroke-width="2" stroke-linecap="round" stroke-linejoin="round"></path>
      <path id="Vector_7" d="M39.1417 28.5306H41.2281" stroke="#333333" stroke-width="2" stroke-miterlimit="10"></path>
      <path id="Vector_8" d="M48.5308 18.0986H50.6172" stroke="#A8BFEF" stroke-width="2" stroke-miterlimit="10"></path>
      <path id="Vector_9" d="M44.3575 11.8394V7.66663" stroke="#A8BFEF" stroke-width="2" stroke-miterlimit="10"></path>
      <path id="Vector_10" d="M38.0985 13.5191L36.0121 9.89917" stroke="#333333" stroke-width="2" stroke-miterlimit="10"></path>
      <path id="Vector_11" d="M33.5195 18.0986L29.91 16.0122" stroke="#333333" stroke-width="2" stroke-miterlimit="10"></path>
      <path id="Vector_12" d="M31.8394 24.3579H27.6666" stroke="#333333" stroke-width="2" stroke-miterlimit="10"></path>
      <path id="Vector_13" d="M33.5195 30.6171L29.91 32.7035" stroke="#333333" stroke-width="2" stroke-miterlimit="10"></path>
      <path id="Vector_14" d="M38.0985 35.1968L36.0121 38.8167" stroke="#333333" stroke-width="2" stroke-miterlimit="10"></path>
      <path id="Vector_15" d="M44.3575 36.8763V41.0491" stroke="#333333" stroke-width="2" stroke-miterlimit="10"></path>
      <path id="Vector_16" d="M50.6168 35.1968L52.7032 38.8167" stroke="#333333" stroke-width="2" stroke-miterlimit="10"></path>
      <path id="Vector_17" d="M55.2078 30.6171L58.8172 32.7035" stroke="#333333" stroke-width="2" stroke-miterlimit="10"></path>
      <path id="Vector_18" d="M56.8762 24.3579H61.049" stroke="#333333" stroke-width="2" stroke-miterlimit="10"></path>
      <path id="Vector_19" d="M55.2078 18.0986L58.8172 16.0122" stroke="#333333" stroke-width="2" stroke-miterlimit="10"></path>
      <path id="Vector_20" d="M50.6168 13.5191L52.7032 9.89917" stroke="#333333" stroke-width="2" stroke-miterlimit="10"></path>
    </g>
  </g>
</svg>
