<?xml version="1.0" encoding="UTF-8"?>
<svg xmlns="http://www.w3.org/2000/svg" width="56" height="59" viewBox="0 0 56 59" fill="none">
  <g id="Layer_1">
    <g id="Group">
      <path id="Vector" d="M36.4575 21.2524L40.5938 25.4061L53.8788 10.4282" stroke="#A8BFEF" stroke-width="2" stroke-miterlimit="10"></path>
      <path id="Vector_2" d="M54.0285 19.3259C54.8806 25.9444 50.2286 32.0024 43.6378 32.8561C37.0471 33.7117 31.0145 29.0402 30.1643 22.4217C29.3123 15.8032 33.9642 9.7452 40.555 8.89144C42.6546 8.61861 44.6969 8.90815 46.534 9.64127" stroke="#333333" stroke-width="2" stroke-miterlimit="10" stroke-linecap="round"></path>
    </g>
    <path id="Vector_3" d="M30.0645 19.6674V6.49719" stroke="#333333" stroke-width="2" stroke-miterlimit="10" stroke-linecap="round"></path>
    <path id="Vector_4" d="M22.8454 9.99939V19.6654L2.22846 53.4446C1.24521 55.0556 2.40034 57.1251 4.27998 57.1251H48.628C50.5095 57.1251 51.6628 55.0556 50.6796 53.4446L41.0651 37.6928" stroke="#333333" stroke-width="2" stroke-miterlimit="10" stroke-linecap="round"></path>
    <path id="Vector_5" d="M30.0645 6.37465H31.2677C32.5966 6.37465 33.6741 5.2926 33.6741 3.95814C33.6741 2.62367 32.5966 1.54163 31.2677 1.54163H21.6422C20.3133 1.54163 19.2358 2.62367 19.2358 3.95814C19.2358 5.2926 20.3133 6.37465 21.6422 6.37465H25.2517" stroke="#333333" stroke-width="2" stroke-miterlimit="10" stroke-linecap="round"></path>
    <path id="Vector_6" d="M14.4211 43.8344V51.0839" stroke="#333333" stroke-width="2" stroke-miterlimit="10" stroke-linecap="round"></path>
    <path id="Vector_7" d="M19.2358 41.4159V51.0838" stroke="#333333" stroke-width="2" stroke-miterlimit="10" stroke-linecap="round"></path>
    <path id="Vector_8" d="M24.0485 34.1664V51.0838" stroke="#333333" stroke-width="2" stroke-miterlimit="10" stroke-linecap="round"></path>
    <path id="Vector_9" d="M28.8613 41.4159V51.0838" stroke="#333333" stroke-width="2" stroke-miterlimit="10" stroke-linecap="round"></path>
    <path id="Vector_10" d="M33.6741 36.5829V51.0838" stroke="#333333" stroke-width="2" stroke-miterlimit="10" stroke-linecap="round"></path>
    <path id="Vector_11" d="M38.4868 41.4159V51.0838" stroke="#333333" stroke-width="2" stroke-miterlimit="10" stroke-linecap="round"></path>
  </g>
</svg>
