<?xml version="1.0" encoding="UTF-8"?>
<svg xmlns="http://www.w3.org/2000/svg" width="80" height="80" viewBox="0 0 80 80" fill="none">
  <g clip-path="url(#clip0_1174_4721)">
    <path d="M51.1602 28.061L52.9917 27.5492C53.1347 27.5098 53.2872 27.5361 53.409 27.6208L54.712 29.9518V29.9566C54.8326 30.1725 54.641 30.6318 54.4802 31.0673C54.3242 31.4896 54.6659 31.9286 55.1092 31.8737C55.5952 31.8141 56.074 32.0312 56.3507 32.438L57.3096 33.8445C57.3912 33.965 57.4184 34.1153 57.3817 34.2561L57.118 35.2821C57.04 35.5827 57.2883 35.8678 57.5945 35.8297C57.9752 35.7808 58.3359 35.6304 58.6385 35.3918L60.7029 33.767C60.7088 33.7622 60.7147 33.7563 60.7207 33.7515L63.4613 31.1806C63.4838 31.1603 63.5027 31.1353 63.5169 31.109L64.6496 28.9879C64.7158 28.8638 64.8293 28.7744 64.9641 28.7398L68.4142 27.8367C68.5029 27.814 68.575 27.7472 68.6057 27.6601L70.0967 23.4477C70.1747 23.2306 70.3887 23.0934 70.6157 23.1172L72.4862 23.3069C72.6529 23.3236 72.8007 23.425 72.8775 23.5742L74.5683 26.8465C74.6712 27.0457 74.631 27.2891 74.4702 27.4442L71.7969 30.0019C71.7354 30.0604 71.7047 30.1439 71.7117 30.2286L71.9458 33.0142C71.96 33.1848 71.8867 33.3506 71.7531 33.4556L68.99 35.5994C68.9273 35.6483 68.8883 35.7211 68.8824 35.7998L68.7216 37.9305C68.7086 38.0928 68.6211 38.2371 68.4828 38.3218L67.4021 38.9863C67.3359 39.0269 67.2909 39.0925 67.2744 39.1688L66.7648 41.6848C66.7518 41.7469 66.7613 41.8125 66.7908 41.8697L68.1765 44.5683C68.2687 44.7472 68.2451 44.9643 68.1174 45.1206L65.7149 48.0446C65.7149 48.0446 65.7078 48.053 65.7042 48.0577L61.9136 53.289C61.8557 53.3677 61.8439 53.4727 61.8817 53.5622L63.5689 57.5897C63.5808 57.6183 63.5914 57.6481 63.5973 57.6779L64.6957 62.7374C64.7371 62.9235 64.6685 63.1191 64.5172 63.242C64.4249 63.3172 64.3055 63.3482 64.1861 63.3482H62.0567C61.8876 63.3482 61.7292 63.2611 61.6382 63.1179L59.4236 59.6678C59.3941 59.6201 59.3716 59.5688 59.3574 59.5151L58.9767 57.9714C58.9507 57.8676 58.8703 57.7889 58.7674 57.7662L56.0386 57.1662C56.0303 57.1638 56.022 57.1626 56.0137 57.1614L52.3603 56.7057C52.3 56.6985 52.2373 56.7116 52.1853 56.7426L50.0795 58.0012C50.0559 58.0156 50.0299 58.0287 50.0027 58.0382L47.7858 58.8888C47.7172 58.9151 47.6427 58.9258 47.5694 58.9198L42.7395 58.5357C42.6733 58.5309 42.6083 58.5488 42.5551 58.5882L39.2552 61.0111C39.183 61.0636 39.1405 61.1483 39.1416 61.2378L39.1499 64.1105C39.1499 64.2751 39.0707 64.4302 38.9359 64.5245C38.8508 64.5841 38.7515 64.6139 38.6522 64.6139C38.5919 64.6139 38.5327 64.6044 38.476 64.5817L35.5461 63.4675C35.4279 63.4233 35.3309 63.3339 35.2754 63.2205L33.3221 59.2276C33.2938 59.1692 33.2453 59.1226 33.1862 59.0964L31.1324 58.1718C31.0355 58.1277 30.922 58.1444 30.8404 58.2148L29.9832 58.9509C29.8768 59.0439 29.7361 59.0857 29.5966 59.0678C29.4582 59.0499 29.3329 58.9735 29.2513 58.8578L27.3359 56.108C27.3111 56.0734 27.2792 56.0436 27.2425 56.0233L23.4424 53.9284C23.4022 53.9057 23.3561 53.8938 23.31 53.8938L19.2936 53.8878C19.2014 53.8878 19.1115 53.8616 19.0323 53.8127L14.2544 50.8278C14.2261 50.8099 14.1953 50.798 14.1622 50.7909L10.9604 50.1538C10.8505 50.1323 10.7523 50.0739 10.679 49.9904L7.31642 46.0631C7.27504 46.0142 7.24312 45.9569 7.22184 45.8961L5.89406 41.9485C5.8846 41.9246 5.87869 41.8996 5.87514 41.8745L5.23431 38.2037L5.23076 38.1858L4.7129 34.4375C4.70344 34.3659 4.70935 34.2931 4.72945 34.2227L5.66823 31.0768C5.67533 31.0565 5.68242 31.0351 5.68951 31.0148L8.15471 24.6645C8.17008 24.6264 8.17599 24.5858 8.17363 24.5452L7.97263 21.3946C7.9608 21.2121 8.04711 21.0391 8.19964 20.9401C8.35098 20.841 8.54488 20.8327 8.7045 20.9186L10.2593 21.7525C10.4035 21.83 10.5821 21.7656 10.6447 21.6129L10.8895 21.0212C10.9852 20.7921 11.2324 20.6669 11.4712 20.7277L17.5201 22.2655C17.5272 22.2666 17.5343 22.269 17.5414 22.2702L24.5361 23.4823C24.5361 23.4823 24.5456 23.4835 24.5515 23.4847L28.3335 24" stroke="#333333" stroke-width="2" stroke-miterlimit="10" stroke-linecap="round"></path>
  </g>
  <path d="M40 42.3578C42.4107 34.338 49.6 32.6765 49.6 25.3171C49.6 20.1623 45.0027 15.7317 40 15.7317C34.9974 15.7317 30.4 20.1623 30.4 25.3171C30.4 32.6765 37.5894 34.338 40 42.3578Z" stroke="#333333" stroke-width="2" stroke-miterlimit="10" stroke-linecap="round"></path>
  <path d="M40.0107 22.1221C41.7814 22.1221 43.2214 23.5492 43.2214 25.3066C43.2214 27.0639 41.7814 28.491 40.0107 28.491C38.24 28.491 36.8 27.0639 36.8 25.3066C36.8 23.5492 38.24 22.1221 40.0107 22.1221Z" stroke="#A8BFEF" stroke-width="2" stroke-miterlimit="10"></path>
  <defs>
    <clipPath id="clip0_1174_4721">
      <rect width="71.3333" height="45.3333" fill="white" transform="translate(4 20)"></rect>
    </clipPath>
  </defs>
</svg>
